<svg width="18" height="23" viewBox="0 0 18 23" fill="none" xmlns="http://www.w3.org/2000/svg">
<mask id="path-1-inside-1_1_262" fill="white">
<path d="M16.875 5.75H13.5V4.6C13.5 3.38 13.0259 2.20998 12.182 1.34731C11.3381 0.484642 10.1935 0 9 0C7.80653 0 6.66193 0.484642 5.81802 1.34731C4.97411 2.20998 4.5 3.38 4.5 4.6V5.75H1.125C0.826631 5.75 0.540483 5.87116 0.329505 6.08683C0.118526 6.30249 6.99301e-09 6.595 0 6.9V19.55C0 20.465 0.355579 21.3425 0.988515 21.9895C1.62145 22.6365 2.47989 23 3.375 23H14.625C15.5201 23 16.3786 22.6365 17.0115 21.9895C17.6444 21.3425 18 20.465 18 19.55V6.9C18 6.595 17.8815 6.30249 17.6705 6.08683C17.4595 5.87116 17.1734 5.75 16.875 5.75ZM6.75 4.6C6.75 3.99 6.98705 3.40499 7.40901 2.97365C7.83097 2.54232 8.40326 2.3 9 2.3C9.59674 2.3 10.169 2.54232 10.591 2.97365C11.0129 3.40499 11.25 3.99 11.25 4.6V5.75H6.75V4.6ZM15.75 19.55C15.75 19.855 15.6315 20.1475 15.4205 20.3632C15.2095 20.5788 14.9234 20.7 14.625 20.7H3.375C3.07663 20.7 2.79048 20.5788 2.5795 20.3632C2.36853 20.1475 2.25 19.855 2.25 19.55V8.05H4.5V9.2C4.5 9.505 4.61853 9.7975 4.82951 10.0132C5.04048 10.2288 5.32663 10.35 5.625 10.35C5.92337 10.35 6.20952 10.2288 6.4205 10.0132C6.63147 9.7975 6.75 9.505 6.75 9.2V8.05H11.25V9.2C11.25 9.505 11.3685 9.7975 11.5795 10.0132C11.7905 10.2288 12.0766 10.35 12.375 10.35C12.6734 10.35 12.9595 10.2288 13.1705 10.0132C13.3815 9.7975 13.5 9.505 13.5 9.2V8.05H15.75V19.55Z"/>
</mask>
<path d="M16.875 5.75H13.5V4.6C13.5 3.38 13.0259 2.20998 12.182 1.34731C11.3381 0.484642 10.1935 0 9 0C7.80653 0 6.66193 0.484642 5.81802 1.34731C4.97411 2.20998 4.5 3.38 4.5 4.6V5.75H1.125C0.826631 5.75 0.540483 5.87116 0.329505 6.08683C0.118526 6.30249 6.99301e-09 6.595 0 6.9V19.55C0 20.465 0.355579 21.3425 0.988515 21.9895C1.62145 22.6365 2.47989 23 3.375 23H14.625C15.5201 23 16.3786 22.6365 17.0115 21.9895C17.6444 21.3425 18 20.465 18 19.55V6.9C18 6.595 17.8815 6.30249 17.6705 6.08683C17.4595 5.87116 17.1734 5.75 16.875 5.75ZM6.75 4.6C6.75 3.99 6.98705 3.40499 7.40901 2.97365C7.83097 2.54232 8.40326 2.3 9 2.3C9.59674 2.3 10.169 2.54232 10.591 2.97365C11.0129 3.40499 11.25 3.99 11.25 4.6V5.75H6.75V4.6ZM15.75 19.55C15.75 19.855 15.6315 20.1475 15.4205 20.3632C15.2095 20.5788 14.9234 20.7 14.625 20.7H3.375C3.07663 20.7 2.79048 20.5788 2.5795 20.3632C2.36853 20.1475 2.25 19.855 2.25 19.55V8.05H4.5V9.2C4.5 9.505 4.61853 9.7975 4.82951 10.0132C5.04048 10.2288 5.32663 10.35 5.625 10.35C5.92337 10.35 6.20952 10.2288 6.4205 10.0132C6.63147 9.7975 6.75 9.505 6.75 9.2V8.05H11.25V9.2C11.25 9.505 11.3685 9.7975 11.5795 10.0132C11.7905 10.2288 12.0766 10.35 12.375 10.35C12.6734 10.35 12.9595 10.2288 13.1705 10.0132C13.3815 9.7975 13.5 9.505 13.5 9.2V8.05H15.75V19.55Z" fill="#E13C51"/>
<path d="M16.875 5.75L16.875 -1.25H16.875V5.75ZM13.5 5.75H6.5V12.75H13.5V5.75ZM9 0L9 -7L9 0ZM4.5 5.75V12.75H11.5V5.75H4.5ZM1.125 5.75L1.125 -1.25L1.125 -1.25L1.125 5.75ZM0 6.9L-7 6.9V6.9H0ZM0 19.55L-7 19.55L0 19.55ZM18 6.9L25 6.9L25 6.9L18 6.9ZM6.75 4.6L-0.25 4.6V4.6H6.75ZM9 2.3L9 9.3L9 2.3ZM11.25 4.6L18.25 4.6L18.25 4.6L11.25 4.6ZM11.25 5.75V12.75H18.25V5.75H11.25ZM6.75 5.75H-0.25V12.75H6.75V5.75ZM15.75 19.55L22.75 19.55V19.55H15.75ZM14.625 20.7L14.625 27.7L14.625 20.7ZM3.375 20.7L3.375 13.7L3.375 20.7ZM2.25 19.55L-4.75 19.55L-4.75 19.55L2.25 19.55ZM2.25 8.05V1.05H-4.75V8.05H2.25ZM4.5 8.05H11.5V1.05H4.5V8.05ZM5.625 10.35L5.625 3.35L5.625 10.35ZM6.75 9.2L-0.25 9.2L6.75 9.2ZM6.75 8.05V1.05H-0.25V8.05H6.75ZM11.25 8.05H18.25V1.05H11.25V8.05ZM13.5 8.05V1.05H6.5V8.05H13.5ZM15.75 8.05H22.75V1.05H15.75V8.05ZM16.875 -1.25H13.5V12.75H16.875V-1.25ZM20.5 5.75V4.6H6.5V5.75H20.5ZM20.5 4.6C20.5 1.57252 19.3249 -1.3611 17.1858 -3.54775L7.17814 6.24237C6.72686 5.78106 6.5 5.18748 6.5 4.6H20.5ZM17.1858 -3.54775C15.0416 -5.73962 12.1003 -7 9 -7L9 7C8.28669 7 7.63454 6.7089 7.17814 6.24237L17.1858 -3.54775ZM9 -7C5.89975 -7 2.9584 -5.73962 0.814182 -3.54775L10.8219 6.24237C10.3655 6.7089 9.71331 7 9 7L9 -7ZM0.814182 -3.54775C-1.32493 -1.3611 -2.5 1.57253 -2.5 4.6H11.5C11.5 5.18748 11.2731 5.78105 10.8219 6.24237L0.814182 -3.54775ZM-2.5 4.6V5.75H11.5V4.6H-2.5ZM4.5 -1.25H1.125V12.75H4.5V-1.25ZM1.125 -1.25C-1.08016 -1.25 -3.16305 -0.353097 -4.67433 1.19177L5.33334 10.9819C4.24402 12.0954 2.73342 12.75 1.125 12.75L1.125 -1.25ZM-4.67433 1.19177C-6.18051 2.73142 -7 4.78753 -7 6.9L7 6.9C7 8.40247 6.41757 9.87357 5.33334 10.9819L-4.67433 1.19177ZM-7 6.9V19.55H7V6.9H-7ZM-7 19.55C-7 22.2725 -5.94346 24.9136 -4.01532 26.8846L5.99235 17.0945C6.65462 17.7714 7 18.6575 7 19.55L-7 19.55ZM-4.01532 26.8846C-2.08208 28.8608 0.57311 30 3.375 30V16C4.38668 16 5.32498 16.4123 5.99235 17.0945L-4.01532 26.8846ZM3.375 30H14.625V16H3.375V30ZM14.625 30C17.4269 30 20.0821 28.8608 22.0153 26.8846L12.0076 17.0945C12.675 16.4123 13.6133 16 14.625 16V30ZM22.0153 26.8846C23.9435 24.9136 25 22.2725 25 19.55H11C11 18.6575 11.3454 17.7714 12.0076 17.0945L22.0153 26.8846ZM25 19.55V6.9H11V19.55H25ZM25 6.9C25 4.78753 24.1805 2.73142 22.6743 1.19177L12.6667 10.9819C11.5824 9.87357 11 8.40247 11 6.9L25 6.9ZM22.6743 1.19177C21.1631 -0.353093 19.0802 -1.25 16.875 -1.25L16.875 12.75C15.2666 12.75 13.756 12.0954 12.6667 10.9819L22.6743 1.19177ZM13.75 4.6C13.75 5.79748 13.2861 6.97607 12.4128 7.86871L2.40517 -1.92141C0.688015 -0.16609 -0.25 2.18252 -0.25 4.6L13.75 4.6ZM12.4128 7.86871C11.5345 8.76658 10.31 9.3 9 9.3L9 -4.7C6.49649 -4.7 4.12744 -3.68194 2.40517 -1.92141L12.4128 7.86871ZM9 9.3C7.68996 9.3 6.46551 8.76658 5.58715 7.86871L15.5948 -1.92141C13.8726 -3.68194 11.5035 -4.7 9 -4.7L9 9.3ZM5.58715 7.86871C4.71391 6.97606 4.25 5.79748 4.25 4.6L18.25 4.6C18.25 2.18253 17.312 -0.166087 15.5948 -1.92141L5.58715 7.86871ZM4.25 4.6V5.75H18.25V4.6H4.25ZM11.25 -1.25H6.75V12.75H11.25V-1.25ZM13.75 5.75V4.6H-0.25V5.75H13.75ZM8.75 19.55C8.75 18.0475 9.33244 16.5764 10.4167 15.4681L20.4243 25.2582C21.9305 23.7186 22.75 21.6625 22.75 19.55L8.75 19.55ZM10.4167 15.4681C11.506 14.3546 13.0166 13.7 14.625 13.7L14.625 27.7C16.8301 27.7 18.913 26.8031 20.4243 25.2582L10.4167 15.4681ZM14.625 13.7H3.375V27.7H14.625V13.7ZM3.375 13.7C4.98341 13.7 6.49401 14.3546 7.58334 15.4681L-2.42433 25.2582C-0.913043 26.8031 1.16986 27.7 3.375 27.7L3.375 13.7ZM7.58334 15.4681C8.66756 16.5764 9.25 18.0475 9.25 19.55L-4.75 19.55C-4.75 21.6625 -3.93051 23.7186 -2.42433 25.2582L7.58334 15.4681ZM9.25 19.55V8.05H-4.75V19.55H9.25ZM2.25 15.05H4.5V1.05H2.25V15.05ZM-2.5 8.05V9.2H11.5V8.05H-2.5ZM-2.5 9.2C-2.5 11.3125 -1.68051 13.3686 -0.174333 14.9082L9.83334 5.11811C10.9176 6.22643 11.5 7.69753 11.5 9.2H-2.5ZM-0.174333 14.9082C1.33695 16.4531 3.41984 17.35 5.625 17.35L5.625 3.35C7.23342 3.35 8.74402 4.00458 9.83334 5.11811L-0.174333 14.9082ZM5.625 17.35C7.83016 17.35 9.91305 16.4531 11.4243 14.9082L1.41666 5.11811C2.50598 4.00458 4.01658 3.35 5.625 3.35L5.625 17.35ZM11.4243 14.9082C12.9305 13.3686 13.75 11.3125 13.75 9.2L-0.25 9.2C-0.25 7.69753 0.332433 6.22643 1.41666 5.11811L11.4243 14.9082ZM13.75 9.2V8.05H-0.25V9.2H13.75ZM6.75 15.05H11.25V1.05H6.75V15.05ZM4.25 8.05V9.2H18.25V8.05H4.25ZM4.25 9.2C4.25 11.3125 5.0695 13.3686 6.57567 14.9082L16.5833 5.11811C17.6676 6.22641 18.25 7.6975 18.25 9.2H4.25ZM6.57567 14.9082C8.08695 16.4531 10.1698 17.35 12.375 17.35V3.35C13.9834 3.35 15.494 4.00459 16.5833 5.11811L6.57567 14.9082ZM12.375 17.35C14.5802 17.35 16.6631 16.4531 18.1743 14.9082L8.16666 5.11811C9.25598 4.00459 10.7666 3.35 12.375 3.35V17.35ZM18.1743 14.9082C19.6805 13.3686 20.5 11.3125 20.5 9.2H6.5C6.5 7.6975 7.08245 6.22641 8.16666 5.11811L18.1743 14.9082ZM20.5 9.2V8.05H6.5V9.2H20.5ZM13.5 15.05H15.75V1.05H13.5V15.05ZM8.75 8.05V19.55H22.75V8.05H8.75Z" fill="#E13C51" mask="url(#path-1-inside-1_1_262)"/>
</svg>
