<svg width="32" height="32" viewBox="0 0 32 32" fill="none" xmlns="http://www.w3.org/2000/svg">
<g clip-path="url(#clip0_1_402)">
<path d="M16.0006 30.2341L16.0008 30.2341C19.7744 30.2297 23.3921 28.7292 26.0605 26.0608C28.7288 23.3925 30.2298 19.7747 30.2341 16.0012V16.0009C30.2341 13.1858 29.3994 10.4338 27.8355 8.0931C26.2715 5.75236 24.0486 3.92796 21.4477 2.8506C18.8469 1.77324 15.985 1.49132 13.224 2.04048C10.4629 2.58964 7.9267 3.94523 5.93607 5.9358C3.94544 7.92638 2.58979 10.4625 2.04056 13.2236C1.49133 15.9846 1.77318 18.8465 2.85047 21.4474C3.92776 24.0483 5.7521 26.2712 8.0928 27.8353C10.4335 29.3993 13.1854 30.2341 16.0006 30.2341ZM7.24109 2.89098C9.83388 1.15861 12.8821 0.233995 16.0004 0.23404C20.1805 0.238831 24.1881 1.90155 27.1438 4.85742C30.0995 7.81326 31.7621 11.8208 31.7667 16.0009C31.7666 19.1192 30.8419 22.1675 29.1094 24.7603C27.3769 27.353 24.9144 29.3738 22.0334 30.567C19.1525 31.7603 15.9823 32.0725 12.9239 31.464C9.86555 30.8556 7.05627 29.3539 4.85133 27.1489C2.64639 24.9439 1.14484 22.1345 0.53656 19.0761C-0.0717242 16.0177 0.240578 12.8476 1.43397 9.96664C2.62737 7.08571 4.64826 4.62336 7.24109 2.89098Z" fill="#E13C51" stroke="#E13C51" stroke-width="0.467348"/>
<path d="M7.84241 15.8671H24.6214" stroke="#E13C51" stroke-width="2" stroke-linecap="round"/>
</g>
<defs>
<clipPath id="clip0_1_402">
<rect width="32" height="32" fill="white"/>
</clipPath>
</defs>
</svg>
