<svg width="218" height="65" viewBox="0 0 218 65" fill="none" xmlns="http://www.w3.org/2000/svg">
<path fill-rule="evenodd" clip-rule="evenodd" d="M38.9405 0.000244141C16.9182 0.000244141 0.697754 16.0702 0.697754 33.2422C0.697754 42.1196 5.05368 49.5888 10.5332 54.7695L10.9498 54.4451C6.60246 50.3202 2.67783 43.8507 2.67783 34.9916C3.82716 16.2036 24.0102 5.61616 41.9437 5.61616C54.6414 5.61616 77.4418 8.98571 77.4418 33.3489C77.4418 46.0606 65.6091 62.5938 40.7711 62.5938C28.05 62.5938 18.1668 54.7723 18.1668 43.5348C18.1668 33.7996 24.803 26.871 34.7083 26.871C37.4358 26.871 39.9918 27.6025 41.9376 28.2104C37.8108 27.3582 31.4 28.574 28.0917 31.5659V48.0163H40.254V29.3125C42.1307 29.7007 43.9259 30.4945 45.5436 31.6515V48.0163H48.7122C46.22 51.2244 41.581 53.1759 37.562 52.4585V53.1465C49.119 54.191 54.0104 47.8984 54.0104 40.8195C54.0104 32.4897 47.2014 27.5983 40.243 26.5972V14.297H28.0831V26.7446C20.2118 28.5698 12.5059 33.9344 12.5059 42.8286C12.5059 56.5188 29.17 65.0002 43.6738 65.0002C65.712 65.0045 82.6701 52.7674 82.6701 35.6051C82.6701 14.8291 58.1874 0.000244141 38.9405 0.000244141ZM55.7038 41.2997C55.7038 35.2499 52.1014 30.4034 45.5448 28.063V14.304H57.6924V48.0163H53.894C55.2296 45.8556 55.7038 43.4042 55.7038 41.2983" fill="#D8D8D8"/>
<path d="M107.676 27.7715V34.9692C107.676 36.4954 107.689 37.7694 107.715 38.7912C107.728 39.1533 107.896 39.3796 108.219 39.4702L110.47 40.1492L110.528 41.1192C108.924 41.0804 107.03 41.061 104.844 41.061C102.606 41.061 100.589 41.0804 98.7907 41.1192L98.6937 40.1492L101.293 39.4314C101.63 39.3279 101.804 39.1274 101.817 38.83C101.843 37.7823 101.856 36.4954 101.856 34.9692V19.5068C101.856 18.2134 101.843 17.1399 101.817 16.2863C101.804 15.95 101.649 15.7366 101.352 15.6461L98.7519 14.8895L98.6937 13.9C100.492 13.9518 102.483 13.9776 104.669 13.9776C106.92 13.9776 108.834 13.9518 110.412 13.9L110.528 14.8895L108.219 15.5491C107.896 15.6396 107.728 15.8401 107.715 16.1505C107.689 17.0817 107.676 18.1746 107.676 19.4292V25.7151H119.239V19.4292C119.239 18.1746 119.226 17.0817 119.2 16.1505C119.187 15.8401 119.019 15.6396 118.696 15.5491L116.426 14.8895L116.368 13.9C118.01 13.9518 119.95 13.9776 122.188 13.9776C124.374 13.9776 126.346 13.9518 128.105 13.9L128.202 14.8895L125.564 15.6461C125.266 15.7366 125.105 15.95 125.079 16.2863C125.053 17.1399 125.04 18.2134 125.04 19.5068V34.9692C125.04 36.4954 125.053 37.7823 125.079 38.83C125.105 39.1274 125.286 39.3279 125.622 39.4314L128.144 40.1492L128.202 41.1192C126.353 41.0804 124.309 41.061 122.072 41.061C119.886 41.061 118.017 41.0804 116.465 41.1192L116.368 40.1492L118.696 39.4702C119.019 39.3796 119.187 39.1533 119.2 38.7912C119.226 37.7694 119.239 36.4954 119.239 34.9692V27.7715H107.676ZM139.358 16.0341C139.358 16.9265 139.067 17.6508 138.485 18.207C137.916 18.7631 137.165 19.0412 136.234 19.0412C135.38 19.0412 134.676 18.7825 134.119 18.2652C133.576 17.7349 133.305 17.0494 133.305 16.2087C133.305 15.2904 133.596 14.5661 134.178 14.0358C134.76 13.5055 135.516 13.2404 136.448 13.2404C137.301 13.2404 138 13.4861 138.543 13.9776C139.086 14.4562 139.358 15.1417 139.358 16.0341ZM130.821 23.9496C134.003 23.471 136.797 22.9731 139.202 22.4557L139.416 22.6109C139.338 24.3958 139.299 26.2971 139.299 28.3148V35.6288C139.299 37.168 139.312 38.2415 139.338 38.8494C139.364 39.1986 139.526 39.4184 139.823 39.509L142.248 40.188L142.307 41.1192C140.392 41.0804 138.491 41.061 136.603 41.061C134.676 41.061 132.774 41.0804 130.899 41.1192L130.802 40.188L133.266 39.509C133.563 39.4314 133.725 39.2374 133.751 38.927C133.777 38.4225 133.79 37.5754 133.79 36.3855V30.1384C133.79 28.4441 133.764 26.8856 133.712 25.4629L130.938 24.745L130.821 23.9496ZM143.839 13.318C147.073 12.8394 149.892 12.3415 152.298 11.8241L152.511 11.9793C152.434 13.7642 152.395 15.6655 152.395 17.6832V35.6288C152.395 37.168 152.408 38.2415 152.434 38.8494C152.46 39.1986 152.621 39.4184 152.919 39.509L155.344 40.188L155.402 41.1192C153.488 41.0804 151.587 41.061 149.698 41.061C147.771 41.061 145.87 41.0804 143.994 41.1192L143.897 40.188L146.361 39.509C146.659 39.4314 146.82 39.2374 146.846 38.927C146.872 38.4225 146.885 37.5754 146.885 36.3855V19.565C146.885 17.8707 146.859 16.3122 146.808 14.8895L143.956 14.1134L143.839 13.318ZM164.967 25.3464C164.889 29.3818 164.85 32.8028 164.85 35.6094C164.85 36.9157 165.051 37.8211 165.452 38.3255C165.853 38.817 166.622 39.0628 167.76 39.0628C168.64 39.0628 169.597 39.011 170.632 38.9076L170.787 40.0716C168.73 41.0804 166.81 41.5849 165.025 41.5849C163.214 41.5849 161.811 41.2098 160.815 40.4596C159.832 39.6965 159.34 38.5519 159.34 37.0257C159.34 34.3354 159.379 30.41 159.457 25.2494L156.838 24.5704L156.663 23.5228L159.903 23.2318L161.746 18.6726C162.845 18.4786 163.848 18.291 164.753 18.11L165.025 18.2458C164.986 19.8108 164.967 21.4728 164.967 23.2318H170.399V25.3464H164.967ZM178.605 31.8457C178.605 34.1996 178.955 36.1138 179.653 37.5883C180.364 39.0498 181.496 39.7806 183.048 39.7806C184.497 39.7806 185.557 39.1339 186.23 37.8405C186.915 36.5471 187.258 34.6265 187.258 32.0785C187.258 29.6857 186.896 27.8039 186.172 26.4329C185.46 25.049 184.341 24.357 182.815 24.357C181.393 24.357 180.332 24.9778 179.634 26.2195C178.948 27.4611 178.605 29.3365 178.605 31.8457ZM193.272 31.6905C193.272 34.6394 192.289 37.0322 190.323 38.8688C188.357 40.6924 185.797 41.6043 182.641 41.6043C179.575 41.6043 177.131 40.7442 175.307 39.024C173.484 37.2908 172.572 35.0274 172.572 32.2337C172.572 29.4012 173.529 27.0796 175.443 25.2688C177.357 23.4452 179.944 22.5333 183.203 22.5333C186.294 22.5333 188.745 23.374 190.556 25.0554C192.367 26.7239 193.272 28.9356 193.272 31.6905ZM195.736 23.9496C198.724 23.5098 201.453 23.0184 203.923 22.4751L204.214 22.6303V24.7062C206.4 23.2576 208.56 22.5333 210.694 22.5333C212.582 22.5333 214.063 23.0507 215.137 24.0854C216.21 25.1072 216.747 26.5622 216.747 28.4506V35.2602C216.747 36.8769 216.76 38.0733 216.786 38.8494C216.799 39.1986 216.967 39.4184 217.29 39.509L219.638 40.188L219.696 41.1192C217.847 41.0804 215.984 41.061 214.109 41.061C212.169 41.061 210.423 41.0804 208.87 41.1192L208.793 40.188L210.733 39.606C211.03 39.5154 211.192 39.3214 211.218 39.024C211.231 38.83 211.237 38.4225 211.237 37.8017V29.6728C211.237 28.0819 210.927 26.9438 210.306 26.2583C209.685 25.5599 208.761 25.2106 207.532 25.2106C206.458 25.2106 205.352 25.5211 204.214 26.1419V34.4842C204.214 36.1009 204.227 37.5818 204.253 38.927C204.266 39.2762 204.415 39.4896 204.699 39.5672L206.717 40.188L206.756 41.1192C205.152 41.0804 203.406 41.061 201.518 41.061C199.59 41.061 197.696 41.0804 195.833 41.1192L195.736 40.188L198.239 39.509C198.523 39.4314 198.672 39.2374 198.685 38.927C198.698 38.0992 198.704 37.3038 198.704 36.5407V30.1578C198.704 28.4635 198.679 26.8985 198.627 25.4629L195.853 24.745L195.736 23.9496Z" fill="#D8D8D8"/>
</svg>
