<svg width="202" height="65" viewBox="0 0 202 65" fill="none" xmlns="http://www.w3.org/2000/svg">
<g clip-path="url(#clip0_1_138)">
<path d="M102.726 38.3903C103.022 40.3632 104.349 41.2196 106.386 41.2196C108.199 41.2196 109.091 40.6394 109.091 39.4313C109.091 38.056 108.061 37.5674 104.233 36.6228C96.448 34.687 95.0918 31.8809 95.0918 28.4875C95.0918 24.5811 97.9116 20.51 105.856 20.51C113.572 20.51 116.806 24.2585 117.146 28.4016H108.898C108.728 27.096 108.072 25.9854 105.961 25.9854C104.58 25.9854 103.744 26.46 103.744 27.5451C103.744 28.6685 104.605 29.0724 108.388 30.0565C116.54 32.1907 117.945 35.0549 117.945 38.5783C117.945 43.2923 114.236 46.6927 106.241 46.6927C98.7367 46.6927 94.8759 43.29 94.3799 38.3891L102.726 38.3903Z" fill="#D8D8D8"/>
<path d="M120.638 21.074H129.453V30.2189H135.461V21.074H144.302V46.1309H135.461V36.2664H129.453V46.1309H120.638V21.074Z" fill="#D8D8D8"/>
<path d="M173.745 33.6297C173.745 40.8087 169.443 46.6938 160.44 46.6938C151.528 46.6938 147.473 40.637 147.473 33.6274C147.473 26.5215 151.814 20.5134 160.83 20.5134C169.256 20.5099 173.745 26.3497 173.745 33.6297ZM156.521 33.5137C156.521 37.9492 157.6 40.9016 160.683 40.9016C163.765 40.9016 164.745 37.9504 164.745 33.6727C164.745 29.1176 163.836 26.2929 160.599 26.2929C157.677 26.2975 156.521 28.9574 156.521 33.5183V33.5137Z" fill="#D8D8D8"/>
<path d="M183.937 41.7523L182.801 46.1309H174.296L181.783 21.074H193.337L201.094 46.1309H191.96L190.793 41.7523H183.937ZM189.446 35.7036C188.707 32.7756 187.862 29.1315 187.345 26.5807H187.183C186.637 29.4251 185.909 32.7315 185.172 35.7036H189.446Z" fill="#D8D8D8"/>
<path d="M38.4469 0C38.4469 0 32.7129 10.548 38.4469 23.662V0Z" fill="#D8D8D8"/>
<path d="M38.4785 0V23.662C44.2125 10.548 38.4785 0 38.4785 0Z" fill="#D8D8D8"/>
<path d="M38.5349 64.885C38.5172 64.9581 38.5078 65.0011 38.5078 65.0011C38.5078 65.0011 38.5149 64.9662 38.5349 64.885Z" fill="#D8D8D8"/>
<path d="M50.5489 37.3213C50.5489 37.3213 53.1294 27.0576 76.9256 11.6632C76.9256 11.6632 60.2966 7.10113 51.6961 13.0883C44.1099 18.3699 38.9746 25.8762 38.4634 39.3162C37.9499 25.8762 32.8204 18.3699 25.2307 13.0883C16.629 7.10113 0 11.6632 0 11.6632C23.7963 27.0576 26.3768 37.3213 26.3768 37.3213C12.6153 27.6274 1.14727 39.3162 1.14727 39.3162C26.574 40.6706 35.101 55.9652 37.5496 62.2726L38.4179 64.9743L38.593 64.5241C38.5696 64.6784 38.5498 64.7875 38.5346 64.8594C38.9629 63.0966 44.9479 40.9526 75.7795 39.3162C75.7795 39.3162 64.308 27.6274 50.5489 37.3213Z" fill="#D8D8D8"/>
</g>
<defs>
<clipPath id="clip0_1_138">
<rect width="201.094" height="65" fill="white"/>
</clipPath>
</defs>
</svg>
