<svg width="42" height="41" viewBox="0 0 42 41" fill="none" xmlns="http://www.w3.org/2000/svg">
<path d="M41.8424 20.1793L41.8529 20.1767L41.8424 19.9638V19.7457H41.8293L41.7717 18.6758L25.3239 19.8175L41.3239 15.9253L41.1169 15.1916L41.0358 14.8914L41.0515 14.8862L40.9755 14.6604L40.9258 14.4706L40.9127 14.4757L40.8079 14.1653L40.5748 13.4546L24.9756 18.7245L39.4145 10.9017L39.04 10.2577L38.8698 9.9729L38.875 9.96777L38.8069 9.86258L38.6524 9.59831L38.6393 9.60601L38.4664 9.3443L38.0448 8.70544L24.3784 17.7496L36.2507 6.55282L35.4754 5.79337L35.4833 5.78567L35.3288 5.64969L35.1638 5.48805L35.1559 5.49574L34.344 4.77991L23.5351 16.9798L32.0523 3.13529L31.3792 2.75557L31.1042 2.59906L31.1094 2.5888L30.9104 2.4913L30.7087 2.37584L30.7035 2.38611L30.418 2.24499L29.7266 1.89862L22.5241 16.4257L27.0787 0.90826L26.3322 0.718398L26.0206 0.63373L26.0258 0.620901L25.8268 0.57985L25.5963 0.515707L25.591 0.533667L25.2689 0.469524L24.5225 0.305319L21.39 16.1614L21.6938 0.0102628H20.5991V0L20.3791 0.0102628H20.1591V0.0230914L19.0643 0.0795369L20.2324 16.1947L16.2462 0.515707L15.5076 0.718398L15.188 0.800501L15.1854 0.785106L14.9628 0.856946L14.7611 0.90826L14.7664 0.923654L14.4599 1.02372L13.724 1.25207L19.1114 16.5129L11.1311 2.37584L10.4606 2.75557L10.183 2.91464L10.1751 2.90181L9.9106 3.07372L9.8006 3.13529L9.80322 3.14043L9.5256 3.31746L8.88916 3.73054L18.1214 17.1184L6.67604 5.48805L5.90079 6.2475L5.89293 6.2398L5.74364 6.40144L5.59174 6.55282L5.59959 6.56051L4.86625 7.35845L17.3174 17.9292L3.18742 9.59831L2.81551 10.2577L2.65051 10.5348L2.62956 10.5245L2.5117 10.7606L2.42789 10.9017L2.43836 10.9094L2.2917 11.2019L1.94074 11.8638L16.7726 18.9349L0.916678 14.4706L0.722866 15.1916L0.639056 15.5097L0.620722 15.5046L0.547388 15.8535L0.529054 15.9253H0.531673L0.466196 16.2358L0.311671 16.9773L16.4845 20.0433L0.0104763 19.7457V20.8181L0 20.8207L0.0104763 21.0362V21.2518H0.0235717L0.0811915 22.3217L16.5133 21.1799L0.529054 25.0721L0.722866 25.8059L0.804058 26.1112H0.801439L0.822391 26.183L0.916678 26.5268L0.932393 26.5217L1.03454 26.8347L1.26502 27.5454L16.8485 22.2755L2.42789 30.0957L2.97004 31.0271L2.9648 31.0297L3.04337 31.1477L3.18742 31.3991L3.20052 31.3914L3.79505 32.292L17.4614 23.2479L5.59174 34.46L6.36437 35.2195L6.35651 35.2272L6.52151 35.3708L6.67604 35.5222L6.68389 35.5145L7.49843 36.2329L18.3048 24.033L9.8006 37.875L10.4606 38.2419L10.7513 38.4086L10.7435 38.4215L11.0001 38.5472L11.1311 38.6216L11.1363 38.6139L11.4218 38.755L12.1132 39.0988L19.3262 24.5872L14.7611 40.0892L15.5076 40.2919L15.8166 40.3714V40.3791L16.0104 40.4201L16.2462 40.4817V40.4715L16.5735 40.5433L17.32 40.6947L20.4629 24.8463L20.1591 40.9872H21.2538V41L21.4738 40.9872H21.6938V40.9769L22.7886 40.9205L21.6231 24.8232L25.5963 40.4817L26.3322 40.2919L26.6544 40.2046L26.657 40.2149L26.9032 40.1379L27.0787 40.0892V40.084L27.3825 39.9865L28.1184 39.7479L22.7415 24.4999L30.7087 38.6216L31.3792 38.2419L31.6594 38.0905L31.6647 38.0956L31.7511 38.0392L32.0523 37.875L32.0392 37.857L32.3142 37.6825L32.9664 37.2823L23.721 23.897L35.1638 35.5222L35.939 34.7628L35.9469 34.7705L36.1014 34.6063L36.2507 34.46L36.2428 34.4523L36.9736 33.6544L24.5198 23.0657L38.6524 31.3991L39.1972 30.4678L39.2103 30.4755L39.3464 30.2112L39.4145 30.0957L39.4067 30.0906L39.9017 29.1336L25.0803 22.0625L40.9258 26.5268L41.1169 25.8059L41.206 25.4903L41.2191 25.4929L41.2584 25.303L41.3239 25.0721L41.3081 25.0695L41.3736 24.7642L41.5412 24.0201L25.3553 20.9541L41.8424 21.2518V20.1793Z" fill="#E13C51"/>
</svg>
