<svg width="352" height="408" viewBox="0 0 352 408" fill="none" xmlns="http://www.w3.org/2000/svg">
<g filter="url(#filter0_d_499_465)">
<mask id="path-1-inside-1_499_465" fill="white">
<path d="M347.9 196.871L348 196.846L347.9 194.768V192.641H347.775L347.224 182.203L190.028 193.342L342.944 155.369L340.966 148.21L340.19 145.282L340.34 145.232L339.614 143.029L339.139 141.176L339.014 141.227L338.013 138.198L335.785 131.264L186.698 182.678L324.696 106.358L321.116 100.075L319.489 97.2966L319.539 97.2466L318.889 96.2203L317.412 93.6421L317.287 93.7171L315.635 91.1639L311.604 84.9312L180.991 173.166L294.458 63.9299L287.049 56.5207L287.124 56.4456L285.647 55.1189L284.07 53.5419L283.995 53.617L276.235 46.6333L172.931 165.657L254.333 30.5882L247.9 26.8836L245.272 25.3567L245.322 25.2566L243.419 24.3054L241.492 23.179L241.442 23.2791L238.713 21.9024L232.105 18.5232L163.269 160.25L206.798 8.86108L199.665 7.00876L196.686 6.18273L196.736 6.05757L194.834 5.65707L192.631 5.03129L192.581 5.20651L189.502 4.58073L182.368 2.97872L152.431 157.672L155.334 0.100125H144.871V0L142.768 0.100125H140.666V0.225282L130.203 0.77597L141.367 157.997L103.269 5.03129L96.2103 7.00876L93.1564 7.80976L93.1314 7.65957L91.0038 8.36045L89.0763 8.86108L89.1264 9.01126L86.1977 9.98748L79.1639 12.2153L130.653 161.101L54.383 23.179L47.975 26.8836L45.3216 28.4355L45.2465 28.3104L42.7184 29.9875L41.6671 30.5882L41.6921 30.6383L39.0388 32.3655L32.9562 36.3955L121.191 167.009L11.8048 53.5419L4.39549 60.9512L4.3204 60.8761L2.89362 62.4531L1.4418 63.9299L1.51689 64.005L-5.49187 71.7897L113.507 174.919L-21.5369 93.6421L-25.0914 100.075L-26.6683 102.778L-26.8686 102.678L-27.995 104.981L-28.796 106.358L-28.6959 106.433L-30.0976 109.287L-33.4518 115.745L108.3 184.731L-43.239 141.176L-45.0914 148.21L-45.8924 151.314L-46.0676 151.264L-46.7685 154.668L-46.9437 155.369H-46.9186L-47.5444 158.398L-49.0213 165.632L105.547 195.544L-51.8999 192.641V203.104L-52 203.129L-51.8999 205.232V207.334H-51.7747L-51.224 217.772L105.822 206.633L-46.9437 244.606L-45.0914 251.765L-44.3154 254.743H-44.3404L-44.1402 255.444L-43.239 258.798L-43.0889 258.748L-42.1126 261.802L-39.9099 268.736L109.026 217.322L-28.796 293.617L-23.6145 302.703L-23.6646 302.728L-22.9136 303.88L-21.5369 306.333L-21.4118 306.258L-15.7297 315.044L114.884 226.808L1.4418 336.195L8.82603 343.605L8.75094 343.68L10.3279 345.081L11.8048 346.558L11.8799 346.483L19.6646 353.492L122.944 234.468L41.6671 369.512L47.975 373.091L50.7534 374.718L50.6783 374.844L53.1314 376.07L54.383 376.796L54.433 376.721L57.1614 378.098L63.7697 381.452L132.706 239.875L89.0763 391.114L96.2103 393.091L99.1639 393.867V393.942L101.016 394.343L103.269 394.944V394.844L106.398 395.544L113.532 397.021L143.569 242.403L140.666 399.875H151.129V400L153.232 399.875H155.334V399.775L165.797 399.224L154.658 242.178L192.631 394.944L199.665 393.091L202.743 392.24L202.768 392.34L205.121 391.589L206.798 391.114V391.064L209.702 390.113L216.736 387.785L165.347 239.024L241.492 376.796L247.9 373.091L250.578 371.615L250.628 371.665L251.454 371.114L254.333 369.512L254.208 369.337L256.836 367.635L263.069 363.73L174.708 233.141L284.07 346.558L291.479 339.149L291.554 339.224L293.031 337.622L294.458 336.195L294.383 336.12L301.367 328.335L182.343 225.031L317.412 306.333L322.618 297.247L322.743 297.322L324.045 294.743L324.696 293.617L324.621 293.567L329.352 284.23L187.7 215.244L339.139 258.798L340.966 251.765L341.817 248.686L341.942 248.711L342.318 246.859L342.944 244.606L342.793 244.581L343.419 241.602L345.021 234.343L190.328 204.431L347.9 207.334V196.871Z"/>
</mask>
<path d="M347.9 196.871L348 196.846L347.9 194.768V192.641H347.775L347.224 182.203L190.028 193.342L342.944 155.369L340.966 148.21L340.19 145.282L340.34 145.232L339.614 143.029L339.139 141.176L339.014 141.227L338.013 138.198L335.785 131.264L186.698 182.678L324.696 106.358L321.116 100.075L319.489 97.2966L319.539 97.2466L318.889 96.2203L317.412 93.6421L317.287 93.7171L315.635 91.1639L311.604 84.9312L180.991 173.166L294.458 63.9299L287.049 56.5207L287.124 56.4456L285.647 55.1189L284.07 53.5419L283.995 53.617L276.235 46.6333L172.931 165.657L254.333 30.5882L247.9 26.8836L245.272 25.3567L245.322 25.2566L243.419 24.3054L241.492 23.179L241.442 23.2791L238.713 21.9024L232.105 18.5232L163.269 160.25L206.798 8.86108L199.665 7.00876L196.686 6.18273L196.736 6.05757L194.834 5.65707L192.631 5.03129L192.581 5.20651L189.502 4.58073L182.368 2.97872L152.431 157.672L155.334 0.100125H144.871V0L142.768 0.100125H140.666V0.225282L130.203 0.77597L141.367 157.997L103.269 5.03129L96.2103 7.00876L93.1564 7.80976L93.1314 7.65957L91.0038 8.36045L89.0763 8.86108L89.1264 9.01126L86.1977 9.98748L79.1639 12.2153L130.653 161.101L54.383 23.179L47.975 26.8836L45.3216 28.4355L45.2465 28.3104L42.7184 29.9875L41.6671 30.5882L41.6921 30.6383L39.0388 32.3655L32.9562 36.3955L121.191 167.009L11.8048 53.5419L4.39549 60.9512L4.3204 60.8761L2.89362 62.4531L1.4418 63.9299L1.51689 64.005L-5.49187 71.7897L113.507 174.919L-21.5369 93.6421L-25.0914 100.075L-26.6683 102.778L-26.8686 102.678L-27.995 104.981L-28.796 106.358L-28.6959 106.433L-30.0976 109.287L-33.4518 115.745L108.3 184.731L-43.239 141.176L-45.0914 148.21L-45.8924 151.314L-46.0676 151.264L-46.7685 154.668L-46.9437 155.369H-46.9186L-47.5444 158.398L-49.0213 165.632L105.547 195.544L-51.8999 192.641V203.104L-52 203.129L-51.8999 205.232V207.334H-51.7747L-51.224 217.772L105.822 206.633L-46.9437 244.606L-45.0914 251.765L-44.3154 254.743H-44.3404L-44.1402 255.444L-43.239 258.798L-43.0889 258.748L-42.1126 261.802L-39.9099 268.736L109.026 217.322L-28.796 293.617L-23.6145 302.703L-23.6646 302.728L-22.9136 303.88L-21.5369 306.333L-21.4118 306.258L-15.7297 315.044L114.884 226.808L1.4418 336.195L8.82603 343.605L8.75094 343.68L10.3279 345.081L11.8048 346.558L11.8799 346.483L19.6646 353.492L122.944 234.468L41.6671 369.512L47.975 373.091L50.7534 374.718L50.6783 374.844L53.1314 376.07L54.383 376.796L54.433 376.721L57.1614 378.098L63.7697 381.452L132.706 239.875L89.0763 391.114L96.2103 393.091L99.1639 393.867V393.942L101.016 394.343L103.269 394.944V394.844L106.398 395.544L113.532 397.021L143.569 242.403L140.666 399.875H151.129V400L153.232 399.875H155.334V399.775L165.797 399.224L154.658 242.178L192.631 394.944L199.665 393.091L202.743 392.24L202.768 392.34L205.121 391.589L206.798 391.114V391.064L209.702 390.113L216.736 387.785L165.347 239.024L241.492 376.796L247.9 373.091L250.578 371.615L250.628 371.665L251.454 371.114L254.333 369.512L254.208 369.337L256.836 367.635L263.069 363.73L174.708 233.141L284.07 346.558L291.479 339.149L291.554 339.224L293.031 337.622L294.458 336.195L294.383 336.12L301.367 328.335L182.343 225.031L317.412 306.333L322.618 297.247L322.743 297.322L324.045 294.743L324.696 293.617L324.621 293.567L329.352 284.23L187.7 215.244L339.139 258.798L340.966 251.765L341.817 248.686L341.942 248.711L342.318 246.859L342.944 244.606L342.793 244.581L343.419 241.602L345.021 234.343L190.328 204.431L347.9 207.334V196.871Z" stroke="#E13C51" stroke-opacity="0.5" stroke-width="2" shape-rendering="crispEdges" mask="url(#path-1-inside-1_499_465)"/>
</g>
<defs>
<filter id="filter0_d_499_465" x="-56" y="0" width="408" height="408" filterUnits="userSpaceOnUse" color-interpolation-filters="sRGB">
<feFlood flood-opacity="0" result="BackgroundImageFix"/>
<feColorMatrix in="SourceAlpha" type="matrix" values="0 0 0 0 0 0 0 0 0 0 0 0 0 0 0 0 0 0 127 0" result="hardAlpha"/>
<feOffset dy="4"/>
<feGaussianBlur stdDeviation="2"/>
<feComposite in2="hardAlpha" operator="out"/>
<feColorMatrix type="matrix" values="0 0 0 0 0 0 0 0 0 0 0 0 0 0 0 0 0 0 0.25 0"/>
<feBlend mode="normal" in2="BackgroundImageFix" result="effect1_dropShadow_499_465"/>
<feBlend mode="normal" in="SourceGraphic" in2="effect1_dropShadow_499_465" result="shape"/>
</filter>
</defs>
</svg>
