<svg width="26" height="26" viewBox="0 0 26 26" fill="none" xmlns="http://www.w3.org/2000/svg">
<path d="M13 -0.000732418C10.4288 -0.000791034 7.91531 0.761597 5.77742 2.19002C3.63952 3.61845 1.97321 5.64876 0.989208 8.0242C0.00520376 10.3996 -0.252302 13.0135 0.249254 15.5353C0.75081 18.0571 1.9889 20.3736 3.80696 22.1917C5.62503 24.0098 7.9414 25.248 10.4632 25.7497C12.9849 26.2514 15.5988 25.994 17.9743 25.0101C20.3498 24.0262 22.3802 22.36 23.8087 20.2222C25.2373 18.0843 25.9998 15.5709 25.9998 12.9997C25.9961 9.55304 24.6252 6.2486 22.1881 3.81138C19.751 1.37415 16.4466 0.00318987 13 -0.000732418ZM13 24.3743C10.7502 24.3743 8.55099 23.7072 6.68039 22.4573C4.8098 21.2074 3.35185 19.4308 2.49092 17.3523C1.63 15.2738 1.40475 12.9867 1.84368 10.7802C2.2826 8.57366 3.36599 6.54686 4.95682 4.95606C6.54765 3.36527 8.57449 2.28194 10.781 1.84307C12.9875 1.40421 15.2747 1.62951 17.3531 2.49049C19.4316 3.35147 21.2081 4.80947 22.458 6.68009C23.7078 8.55072 24.3749 10.75 24.3748 12.9997C24.3714 16.0155 23.1719 18.9067 21.0394 21.0391C18.9069 23.1716 16.0157 24.3708 13 24.3743Z" fill="black"/>
<path d="M6.37207 12.8918H20.005" stroke="black" stroke-width="2.33674"/>
</svg>
