<svg width="26" height="26" viewBox="0 0 26 26" fill="none" xmlns="http://www.w3.org/2000/svg">
<g clip-path="url(#clip0_1_72)">
<path d="M12.9985 -0.00146484C10.4274 -0.00146484 7.91397 0.760972 5.77613 2.18943C3.63829 3.61789 1.97205 5.64821 0.988107 8.02365C0.00416785 10.3991 -0.253276 13.013 0.248332 15.5347C0.74994 18.0565 1.98807 20.3728 3.80615 22.1909C5.62424 24.009 7.94061 25.2471 10.4624 25.7487C12.9841 26.2503 15.598 25.9929 17.9734 25.009C20.3489 24.025 22.3792 22.3588 23.8076 20.2209C25.2361 18.0831 25.9985 15.5697 25.9985 12.9985C25.9946 9.55194 24.6237 6.24764 22.1865 3.81053C19.7494 1.37342 16.4451 0.00250513 12.9985 -0.00146484ZM12.9985 24.3735C10.7488 24.3733 8.54968 23.706 6.6792 22.456C4.80872 21.206 3.35092 19.4294 2.49012 17.3509C1.62933 15.2723 1.40421 12.9852 1.84323 10.7788C2.28225 8.5723 3.36569 6.54556 4.95655 4.95484C6.54742 3.36412 8.57425 2.28086 10.7808 1.84203C12.9873 1.4032 15.2743 1.62852 17.3528 2.4895C19.4312 3.35048 21.2077 4.80844 22.4576 6.67903C23.7074 8.54961 24.3745 10.7488 24.3745 12.9985C24.3714 16.0147 23.1718 18.9063 21.0391 21.0391C18.9064 23.1718 16.0147 24.3704 12.9985 24.3735ZM20.2105 12.9985C20.2105 13.1053 20.1895 13.211 20.1487 13.3097C20.1078 13.4083 20.0479 13.4979 19.9724 13.5734C19.8969 13.6489 19.8073 13.7088 19.7087 13.7496C19.61 13.7905 19.5043 13.8115 19.3975 13.8115H13.8125V19.3985C13.8164 19.5076 13.7982 19.6164 13.7591 19.7183C13.72 19.8202 13.6607 19.9132 13.5849 19.9918C13.5091 20.0703 13.4182 20.1327 13.3177 20.1754C13.2173 20.2181 13.1092 20.24 13 20.24C12.8909 20.24 12.7828 20.2181 12.6823 20.1754C12.5819 20.1327 12.491 20.0703 12.4152 19.9918C12.3393 19.9132 12.2801 19.8202 12.241 19.7183C12.2019 19.6164 12.1837 19.5076 12.1875 19.3985V13.8125H6.59854C6.48944 13.8164 6.38069 13.7982 6.27877 13.7591C6.17685 13.72 6.08386 13.6607 6.00532 13.5849C5.92679 13.5091 5.86433 13.4182 5.82167 13.3177C5.77902 13.2172 5.75703 13.1092 5.75703 13C5.75703 12.8909 5.77902 12.7828 5.82167 12.6823C5.86433 12.5819 5.92679 12.491 6.00532 12.4152C6.08386 12.3393 6.17685 12.2801 6.27877 12.241C6.38069 12.2019 6.48944 12.1837 6.59854 12.1875H12.1845V6.59853C12.1807 6.48944 12.1989 6.38069 12.238 6.27877C12.2771 6.17685 12.3363 6.08385 12.4122 6.00532C12.488 5.92678 12.5789 5.86433 12.6793 5.82167C12.7798 5.77901 12.8879 5.75703 12.997 5.75703C13.1062 5.75703 13.2143 5.77901 13.3147 5.82167C13.4152 5.86433 13.5061 5.92678 13.5819 6.00532C13.6577 6.08385 13.717 6.17685 13.7561 6.27877C13.7952 6.38069 13.8134 6.48944 13.8095 6.59853V12.1845H19.3985C19.5053 12.1847 19.611 12.2058 19.7096 12.2468C19.8082 12.2878 19.8977 12.3478 19.9731 12.4234C20.0485 12.499 20.1083 12.5886 20.149 12.6873C20.1898 12.786 20.2107 12.8918 20.2105 12.9985Z" fill="black"/>
</g>
<defs>
<clipPath id="clip0_1_72">
<rect width="26" height="26" fill="white"/>
</clipPath>
</defs>
</svg>
