<svg width="338" height="442" viewBox="0 0 338 442" fill="none" xmlns="http://www.w3.org/2000/svg">
<g filter="url(#filter0_d_333_475)">
<mask id="path-1-inside-1_333_475" fill="white">
<path d="M333.863 164.69L334 164.656L333.863 161.911V159.099H333.691L332.937 145.303L117.578 160.025L327.073 109.838L324.364 100.377L323.301 96.5059L323.506 96.4397L322.512 93.5284L321.86 91.0803L321.689 91.1465L320.317 87.1435L317.265 77.9795L113.017 145.932L302.073 45.0622L297.169 36.7584L294.94 33.0862L295.009 33.02L294.117 31.6636L292.094 28.2561L291.923 28.3553L289.659 24.9809L284.138 16.7433L105.198 133.36L260.648 -11.0132L250.497 -20.8057L250.6 -20.9049L248.576 -22.6583L246.416 -24.7425L246.313 -24.6433L235.682 -33.8734L94.1557 123.435L205.676 -55.0794L196.863 -59.9757L193.262 -61.9937L193.331 -62.1261L190.724 -63.3832L188.084 -64.8719L188.015 -64.7396L184.277 -66.5592L175.224 -71.0253L80.9186 116.289L140.554 -83.7953L130.78 -86.2434L126.7 -87.3351L126.768 -87.5006L124.162 -88.0299L121.144 -88.857L121.076 -88.6254L116.858 -89.4524L107.084 -91.5697L66.0698 112.882L70.0478 -95.3743H55.7134V-95.5066L52.8328 -95.3743H49.9522V-95.2088L35.6178 -94.481L50.9124 113.312L-1.28136 -88.857L-10.952 -86.2434L-15.1357 -85.1848L-15.17 -85.3833L-18.0849 -84.4569L-20.7254 -83.7953L-20.6568 -83.5968L-24.6691 -82.3066L-34.3054 -79.3622L36.235 117.414L-68.2553 -64.8719L-77.0343 -59.9757L-80.6693 -57.9246L-80.7722 -58.09L-84.2358 -55.8734L-85.6761 -55.0794L-85.6418 -55.0133L-89.2769 -52.7306L-97.61 -47.4042L23.2723 125.222L-126.587 -24.7425L-136.738 -14.95L-136.841 -15.0493L-138.796 -12.965L-140.785 -11.0132L-140.682 -10.9139L-150.284 -0.625169L12.7444 135.676L-172.266 28.2561L-177.135 36.7584L-179.296 40.3313L-179.57 40.199L-181.113 43.2426L-182.211 45.0622L-182.073 45.1614L-183.994 48.9328L-188.589 57.4682L5.61151 148.644L-201.997 91.0803L-204.535 100.377L-205.633 104.479L-205.873 104.413L-206.833 108.912L-207.073 109.838H-207.039L-207.896 113.841L-209.919 123.402L1.83929 162.936L-213.863 159.099V172.927L-214 172.96L-213.863 175.739V178.518H-213.691L-212.937 192.314L2.21651 177.592L-207.073 227.778L-204.535 237.24L-203.472 241.177H-203.506L-203.232 242.103L-201.997 246.536L-201.792 246.47L-200.454 250.506L-197.437 259.67L6.60601 191.718L-182.211 292.554L-175.112 304.564L-175.18 304.597L-174.152 306.118L-172.266 309.361L-172.094 309.261L-164.31 320.873L14.6305 204.257L-140.785 348.828L-130.668 358.621L-130.771 358.72L-128.611 360.573L-126.587 362.525L-126.485 362.425L-115.82 371.688L25.6728 214.38L-85.6761 392.861L-77.0343 397.592L-73.2278 399.743L-73.3307 399.908L-69.97 401.529L-68.2553 402.489L-68.1867 402.389L-64.4488 404.209L-55.3955 408.642L39.0471 221.526L-20.7254 421.412L-10.952 424.025L-6.90539 425.051V425.15L-4.36771 425.68L-1.28136 426.474V426.341L3.00524 427.268L12.7787 429.219L53.9301 224.867L49.9522 432.991H64.2866V433.156L67.1672 432.991H70.0478V432.859L84.3822 432.131L69.1219 224.569L121.144 426.474L130.78 424.025L134.998 422.901L135.033 423.033L138.256 422.04L140.554 421.412V421.346L144.532 420.089L154.168 417.012L83.765 220.401L188.084 402.489L196.863 397.592L200.532 395.64L200.601 395.707L201.732 394.979L205.676 392.861L205.505 392.63L209.105 390.38L217.644 385.219L96.5905 212.626L246.416 362.525L256.567 352.732L256.67 352.831L258.693 350.714L260.648 348.828L260.545 348.729L270.112 338.44L107.05 201.908L292.094 309.361L299.227 297.351L299.399 297.451L301.182 294.043L302.073 292.554L301.97 292.488L308.452 280.148L114.388 188.972L321.86 246.536L324.364 237.24L325.53 233.171L325.701 233.204L326.215 230.756L327.073 227.778L326.867 227.745L327.724 223.808L329.919 214.214L117.989 174.68L333.863 178.518V164.69Z"/>
</mask>
<path d="M333.863 164.69L334 164.656L333.863 161.911V159.099H333.691L332.937 145.303L117.578 160.025L327.073 109.838L324.364 100.377L323.301 96.5059L323.506 96.4397L322.512 93.5284L321.86 91.0803L321.689 91.1465L320.317 87.1435L317.265 77.9795L113.017 145.932L302.073 45.0622L297.169 36.7584L294.94 33.0862L295.009 33.02L294.117 31.6636L292.094 28.2561L291.923 28.3553L289.659 24.9809L284.138 16.7433L105.198 133.36L260.648 -11.0132L250.497 -20.8057L250.6 -20.9049L248.576 -22.6583L246.416 -24.7425L246.313 -24.6433L235.682 -33.8734L94.1557 123.435L205.676 -55.0794L196.863 -59.9757L193.262 -61.9937L193.331 -62.1261L190.724 -63.3832L188.084 -64.8719L188.015 -64.7396L184.277 -66.5592L175.224 -71.0253L80.9186 116.289L140.554 -83.7953L130.78 -86.2434L126.7 -87.3351L126.768 -87.5006L124.162 -88.0299L121.144 -88.857L121.076 -88.6254L116.858 -89.4524L107.084 -91.5697L66.0698 112.882L70.0478 -95.3743H55.7134V-95.5066L52.8328 -95.3743H49.9522V-95.2088L35.6178 -94.481L50.9124 113.312L-1.28136 -88.857L-10.952 -86.2434L-15.1357 -85.1848L-15.17 -85.3833L-18.0849 -84.4569L-20.7254 -83.7953L-20.6568 -83.5968L-24.6691 -82.3066L-34.3054 -79.3622L36.235 117.414L-68.2553 -64.8719L-77.0343 -59.9757L-80.6693 -57.9246L-80.7722 -58.09L-84.2358 -55.8734L-85.6761 -55.0794L-85.6418 -55.0133L-89.2769 -52.7306L-97.61 -47.4042L23.2723 125.222L-126.587 -24.7425L-136.738 -14.95L-136.841 -15.0493L-138.796 -12.965L-140.785 -11.0132L-140.682 -10.9139L-150.284 -0.625169L12.7444 135.676L-172.266 28.2561L-177.135 36.7584L-179.296 40.3313L-179.57 40.199L-181.113 43.2426L-182.211 45.0622L-182.073 45.1614L-183.994 48.9328L-188.589 57.4682L5.61151 148.644L-201.997 91.0803L-204.535 100.377L-205.633 104.479L-205.873 104.413L-206.833 108.912L-207.073 109.838H-207.039L-207.896 113.841L-209.919 123.402L1.83929 162.936L-213.863 159.099V172.927L-214 172.96L-213.863 175.739V178.518H-213.691L-212.937 192.314L2.21651 177.592L-207.073 227.778L-204.535 237.24L-203.472 241.177H-203.506L-203.232 242.103L-201.997 246.536L-201.792 246.47L-200.454 250.506L-197.437 259.67L6.60601 191.718L-182.211 292.554L-175.112 304.564L-175.18 304.597L-174.152 306.118L-172.266 309.361L-172.094 309.261L-164.31 320.873L14.6305 204.257L-140.785 348.828L-130.668 358.621L-130.771 358.72L-128.611 360.573L-126.587 362.525L-126.485 362.425L-115.82 371.688L25.6728 214.38L-85.6761 392.861L-77.0343 397.592L-73.2278 399.743L-73.3307 399.908L-69.97 401.529L-68.2553 402.489L-68.1867 402.389L-64.4488 404.209L-55.3955 408.642L39.0471 221.526L-20.7254 421.412L-10.952 424.025L-6.90539 425.051V425.15L-4.36771 425.68L-1.28136 426.474V426.341L3.00524 427.268L12.7787 429.219L53.9301 224.867L49.9522 432.991H64.2866V433.156L67.1672 432.991H70.0478V432.859L84.3822 432.131L69.1219 224.569L121.144 426.474L130.78 424.025L134.998 422.901L135.033 423.033L138.256 422.04L140.554 421.412V421.346L144.532 420.089L154.168 417.012L83.765 220.401L188.084 402.489L196.863 397.592L200.532 395.64L200.601 395.707L201.732 394.979L205.676 392.861L205.505 392.63L209.105 390.38L217.644 385.219L96.5905 212.626L246.416 362.525L256.567 352.732L256.67 352.831L258.693 350.714L260.648 348.828L260.545 348.729L270.112 338.44L107.05 201.908L292.094 309.361L299.227 297.351L299.399 297.451L301.182 294.043L302.073 292.554L301.97 292.488L308.452 280.148L114.388 188.972L321.86 246.536L324.364 237.24L325.53 233.171L325.701 233.204L326.215 230.756L327.073 227.778L326.867 227.745L327.724 223.808L329.919 214.214L117.989 174.68L333.863 178.518V164.69Z" stroke="#E13C51" stroke-opacity="0.5" stroke-width="2" shape-rendering="crispEdges" mask="url(#path-1-inside-1_333_475)"/>
</g>
<defs>
<filter id="filter0_d_333_475" x="-218" y="-95.5066" width="556" height="536.663" filterUnits="userSpaceOnUse" color-interpolation-filters="sRGB">
<feFlood flood-opacity="0" result="BackgroundImageFix"/>
<feColorMatrix in="SourceAlpha" type="matrix" values="0 0 0 0 0 0 0 0 0 0 0 0 0 0 0 0 0 0 127 0" result="hardAlpha"/>
<feOffset dy="4"/>
<feGaussianBlur stdDeviation="2"/>
<feComposite in2="hardAlpha" operator="out"/>
<feColorMatrix type="matrix" values="0 0 0 0 0 0 0 0 0 0 0 0 0 0 0 0 0 0 0.25 0"/>
<feBlend mode="normal" in2="BackgroundImageFix" result="effect1_dropShadow_333_475"/>
<feBlend mode="normal" in="SourceGraphic" in2="effect1_dropShadow_333_475" result="shape"/>
</filter>
</defs>
</svg>
