<svg width="485" height="485" viewBox="0 0 485 485" fill="none" xmlns="http://www.w3.org/2000/svg">
<mask id="path-1-inside-1_643_463" fill="white">
<path d="M484.879 238.706L485 238.676L484.879 236.157V233.577H484.727L484.059 220.921L293.458 234.427L478.869 188.385L476.472 179.705L475.531 176.154L475.713 176.093L474.833 173.422L474.256 171.176L474.104 171.237L472.89 167.565L470.189 159.158L289.422 221.497L456.744 128.959L452.404 121.341L450.431 117.972L450.492 117.911L449.702 116.667L447.912 113.541L447.76 113.632L445.757 110.536L440.87 102.979L282.502 209.964L420.08 77.515L411.097 68.5313L411.188 68.4402L409.397 66.8317L407.485 64.9196L407.394 65.0106L397.985 56.5429L272.729 200.859L371.429 37.0882L363.629 32.5964L360.442 30.745L360.502 30.6236L358.196 29.4703L355.859 28.1045L355.798 28.2259L352.49 26.5566L344.477 22.4593L261.014 194.303L313.793 10.7441L305.143 8.49812L301.532 7.49656L301.592 7.34481L299.286 6.8592L296.615 6.10044L296.554 6.31289L292.821 5.55413L284.171 3.6117L247.872 191.177L251.393 0.121402H238.706V0L236.157 0.121402H233.607V0.273154L220.921 0.940864L234.457 191.572L188.264 6.10044L179.705 8.49812L176.002 9.46934L175.972 9.28723L173.392 10.137L171.055 10.7441L171.116 10.9262L167.565 12.1098L159.036 14.811L221.467 195.335L128.989 28.1045L121.22 32.5964L118.002 34.4781L117.911 34.3263L114.846 36.3598L113.571 37.0882L113.602 37.1489L110.385 39.2431L103.009 44.1295L209.995 202.498L77.3633 64.9196L68.3795 73.9033L68.2885 73.8123L66.5585 75.7243L64.7982 77.515L64.8892 77.6061L56.3911 87.0451L200.677 212.089L36.9365 113.541L32.6267 121.341L30.7146 124.619L30.4718 124.497L29.1061 127.29L28.1349 128.959L28.2563 129.05L26.5566 132.51L22.4897 140.34L194.364 223.986L10.6227 171.176L8.37672 179.705L7.40551 183.468L7.19305 183.408L6.34324 187.535L6.13079 188.385H6.16114L5.40238 192.058L3.6117 200.829L191.026 237.098L0.121402 233.577V246.263L0 246.294L0.121402 248.843V251.393H0.273154L0.940863 264.049L191.359 250.543L6.13079 296.584L8.37672 305.265L9.31758 308.876H9.28723L9.53004 309.726L10.6227 313.793L10.8048 313.732L11.9884 317.435L14.6593 325.842L195.244 263.503L28.1349 356.011L34.4174 367.028L34.3567 367.058L35.2672 368.454L36.9365 371.429L37.0882 371.338L43.9778 381.991L202.346 275.005L64.7982 407.637L73.7516 416.62L73.6605 416.712L75.5726 418.411L77.3633 420.202L77.4543 420.111L86.8933 428.609L212.119 284.293L113.571 448.033L121.22 452.373L124.589 454.346L124.497 454.498L127.472 455.985L128.989 456.865L129.05 456.774L132.358 458.443L140.371 462.51L223.956 290.848L171.055 474.226L179.705 476.623L183.286 477.564V477.655L185.532 478.141L188.264 478.869V478.748L192.058 479.598L200.707 481.388L237.128 293.914L233.607 484.848H246.294V485L248.843 484.848H251.393V484.727L264.079 484.059L250.573 293.64L296.615 478.869L305.143 476.623L308.876 475.591L308.907 475.713L311.76 474.802L313.793 474.226V474.165L317.314 473.012L325.842 470.189L263.533 289.816L355.859 456.865L363.629 452.373L366.876 450.583L366.937 450.643L367.938 449.976L371.429 448.033L371.277 447.821L374.464 445.757L382.021 441.022L274.884 282.684L407.485 420.202L416.469 411.218L416.56 411.309L418.35 409.367L420.08 407.637L419.989 407.546L428.457 398.107L284.141 272.85L447.912 371.429L454.225 360.411L454.376 360.502L455.955 357.376L456.744 356.011L456.653 355.95L462.389 344.629L290.636 260.983L474.256 313.793L476.472 305.265L477.503 301.532L477.655 301.562L478.11 299.316L478.869 296.584L478.687 296.554L479.446 292.942L481.388 284.141L293.823 247.872L484.879 251.393V238.706Z"/>
</mask>
<path d="M484.879 238.706L485 238.676L484.879 236.157V233.577H484.727L484.059 220.921L293.458 234.427L478.869 188.385L476.472 179.705L475.531 176.154L475.713 176.093L474.833 173.422L474.256 171.176L474.104 171.237L472.89 167.565L470.189 159.158L289.422 221.497L456.744 128.959L452.404 121.341L450.431 117.972L450.492 117.911L449.702 116.667L447.912 113.541L447.76 113.632L445.757 110.536L440.87 102.979L282.502 209.964L420.08 77.515L411.097 68.5313L411.188 68.4402L409.397 66.8317L407.485 64.9196L407.394 65.0106L397.985 56.5429L272.729 200.859L371.429 37.0882L363.629 32.5964L360.442 30.745L360.502 30.6236L358.196 29.4703L355.859 28.1045L355.798 28.2259L352.49 26.5566L344.477 22.4593L261.014 194.303L313.793 10.7441L305.143 8.49812L301.532 7.49656L301.592 7.34481L299.286 6.8592L296.615 6.10044L296.554 6.31289L292.821 5.55413L284.171 3.6117L247.872 191.177L251.393 0.121402H238.706V0L236.157 0.121402H233.607V0.273154L220.921 0.940864L234.457 191.572L188.264 6.10044L179.705 8.49812L176.002 9.46934L175.972 9.28723L173.392 10.137L171.055 10.7441L171.116 10.9262L167.565 12.1098L159.036 14.811L221.467 195.335L128.989 28.1045L121.22 32.5964L118.002 34.4781L117.911 34.3263L114.846 36.3598L113.571 37.0882L113.602 37.1489L110.385 39.2431L103.009 44.1295L209.995 202.498L77.3633 64.9196L68.3795 73.9033L68.2885 73.8123L66.5585 75.7243L64.7982 77.515L64.8892 77.6061L56.3911 87.0451L200.677 212.089L36.9365 113.541L32.6267 121.341L30.7146 124.619L30.4718 124.497L29.1061 127.29L28.1349 128.959L28.2563 129.05L26.5566 132.51L22.4897 140.34L194.364 223.986L10.6227 171.176L8.37672 179.705L7.40551 183.468L7.19305 183.408L6.34324 187.535L6.13079 188.385H6.16114L5.40238 192.058L3.6117 200.829L191.026 237.098L0.121402 233.577V246.263L0 246.294L0.121402 248.843V251.393H0.273154L0.940863 264.049L191.359 250.543L6.13079 296.584L8.37672 305.265L9.31758 308.876H9.28723L9.53004 309.726L10.6227 313.793L10.8048 313.732L11.9884 317.435L14.6593 325.842L195.244 263.503L28.1349 356.011L34.4174 367.028L34.3567 367.058L35.2672 368.454L36.9365 371.429L37.0882 371.338L43.9778 381.991L202.346 275.005L64.7982 407.637L73.7516 416.62L73.6605 416.712L75.5726 418.411L77.3633 420.202L77.4543 420.111L86.8933 428.609L212.119 284.293L113.571 448.033L121.22 452.373L124.589 454.346L124.497 454.498L127.472 455.985L128.989 456.865L129.05 456.774L132.358 458.443L140.371 462.51L223.956 290.848L171.055 474.226L179.705 476.623L183.286 477.564V477.655L185.532 478.141L188.264 478.869V478.748L192.058 479.598L200.707 481.388L237.128 293.914L233.607 484.848H246.294V485L248.843 484.848H251.393V484.727L264.079 484.059L250.573 293.64L296.615 478.869L305.143 476.623L308.876 475.591L308.907 475.713L311.76 474.802L313.793 474.226V474.165L317.314 473.012L325.842 470.189L263.533 289.816L355.859 456.865L363.629 452.373L366.876 450.583L366.937 450.643L367.938 449.976L371.429 448.033L371.277 447.821L374.464 445.757L382.021 441.022L274.884 282.684L407.485 420.202L416.469 411.218L416.56 411.309L418.35 409.367L420.08 407.637L419.989 407.546L428.457 398.107L284.141 272.85L447.912 371.429L454.225 360.411L454.376 360.502L455.955 357.376L456.744 356.011L456.653 355.95L462.389 344.629L290.636 260.983L474.256 313.793L476.472 305.265L477.503 301.532L477.655 301.562L478.11 299.316L478.869 296.584L478.687 296.554L479.446 292.942L481.388 284.141L293.823 247.872L484.879 251.393V238.706Z" stroke="#E13C51" stroke-opacity="0.5" stroke-width="2" mask="url(#path-1-inside-1_643_463)"/>
</svg>
