<svg width="32" height="32" viewBox="0 0 32 32" fill="none" xmlns="http://www.w3.org/2000/svg">
<g clip-path="url(#clip0_1_406)">
<path d="M15.9981 30.5872H15.9988C19.8668 30.5831 23.5754 29.046 26.3107 26.3107C29.046 23.5755 30.5844 19.867 30.5885 15.9988V15.9982C30.5885 13.1128 29.7329 10.2922 28.1298 7.89306C26.5268 5.49393 24.2484 3.62402 21.5827 2.51977C18.917 1.41552 15.9837 1.12653 13.1537 1.68935C10.3237 2.25217 7.72421 3.64151 5.68384 5.6817C3.64348 7.72189 2.25391 10.3213 1.69084 13.1512C1.12777 15.9811 1.4165 18.9144 2.52052 21.5803C3.62453 24.2461 5.49424 26.5247 7.89323 28.1279C10.2922 29.7311 13.1127 30.587 15.9981 30.5872ZM24.2854 15.9974V15.9982C24.2854 16.0522 24.2748 16.1057 24.2541 16.1557C24.2334 16.2056 24.2031 16.251 24.1649 16.2892L24.5814 16.7057L24.1649 16.2892C24.1267 16.3274 24.0813 16.3577 24.0314 16.3784L24.2568 16.9226L24.0314 16.3784C23.9814 16.3991 23.9279 16.4097 23.8739 16.4097H17H16.411V16.9988V23.8751V23.8854L16.4113 23.8957C16.4133 23.951 16.4041 24.006 16.3843 24.0576C16.3645 24.1092 16.3345 24.1563 16.2961 24.1961C16.2577 24.2358 16.2117 24.2674 16.1609 24.289C16.11 24.3106 16.0553 24.3217 16 24.3217C15.9448 24.3217 15.8901 24.3106 15.8392 24.289C15.7883 24.2674 15.7423 24.2358 15.7039 24.1961L15.2802 24.6052L15.7039 24.196C15.6656 24.1563 15.6356 24.1092 15.6158 24.0576C15.596 24.006 15.5868 23.951 15.5887 23.8957L15.5891 23.8854V23.8751V17V16.411H15H8.12125H8.11092L8.10059 16.4113C8.04537 16.4133 7.99032 16.4041 7.93872 16.3843C7.88712 16.3645 7.84004 16.3345 7.80029 16.2961C7.76054 16.2577 7.72892 16.2117 7.70732 16.1608C7.68573 16.11 7.6746 16.0553 7.6746 16C7.6746 15.9448 7.68573 15.8901 7.70732 15.8392C7.72892 15.7883 7.76053 15.7423 7.80029 15.7039C7.84005 15.6655 7.88713 15.6356 7.93872 15.6158C7.99032 15.596 8.04537 15.5868 8.1006 15.5887L8.11092 15.5891H8.12125H14.9963H15.5854V15V8.12125V8.11092L15.585 8.10059C15.5831 8.04536 15.5923 7.99031 15.6121 7.93871C15.6319 7.88712 15.6619 7.84004 15.7002 7.80028C15.7386 7.76053 15.7846 7.72891 15.8355 7.70731C15.8864 7.68572 15.9411 7.67459 15.9963 7.67459C16.0516 7.67459 16.1063 7.68572 16.1572 7.70731C16.208 7.72891 16.254 7.76053 16.2924 7.80029C16.3308 7.84004 16.3608 7.88712 16.3806 7.93872C16.4004 7.99031 16.4096 8.04536 16.4076 8.10059L16.4073 8.11092V8.12125V14.9963V15.5854H16.9963H23.8744C23.9284 15.5854 23.9819 15.5961 24.0318 15.6169C24.0817 15.6376 24.1271 15.668 24.1652 15.7063C24.2034 15.7445 24.2337 15.7899 24.2543 15.8399C24.2749 15.8899 24.2855 15.9434 24.2854 15.9974ZM7.43631 3.18443C9.97054 1.49111 12.95 0.58728 15.9979 0.587218C20.0837 0.59202 24.0008 2.21724 26.89 5.10638C29.7792 7.9956 31.4044 11.9129 31.4091 15.9988C31.409 19.0466 30.5052 22.0259 28.8119 24.56C27.1185 27.0944 24.7117 29.0696 21.8957 30.236C19.0797 31.4024 15.9811 31.7076 12.9916 31.113C10.0022 30.5184 7.25625 29.0506 5.10099 26.8954C2.94573 24.7401 1.47798 21.9941 0.883342 19.0047C0.288707 16.0153 0.593895 12.9166 1.76031 10.1007C2.92673 7.28467 4.90199 4.87781 7.43631 3.18443Z" fill="#E13C51" stroke="#E13C51" stroke-width="1.1781"/>
</g>
<defs>
<clipPath id="clip0_1_406">
<rect width="32" height="32" fill="white"/>
</clipPath>
</defs>
</svg>
