<svg width="147" height="41" viewBox="0 0 147 41" fill="none" xmlns="http://www.w3.org/2000/svg">
<path d="M64.5867 29.6185C64.6207 29.3619 64.9429 29.1592 65.1105 28.9155C65.2547 28.6505 65.3166 28.3499 65.2886 28.0509C65.2886 24.7668 65.3043 21.4801 65.1262 18.2011C65.0843 17.4571 64.9508 16.5796 64.2724 16.2409C64.0326 16.1399 63.7691 16.1052 63.5106 16.1405C63.252 16.1758 63.0083 16.2797 62.8057 16.441C62.4058 16.7718 62.1022 17.2002 61.9257 17.6828C61.2709 19.2377 61.2605 20.9721 61.2579 22.6552V29.326C61.2671 29.4157 61.2459 29.5059 61.1976 29.5826C61.1515 29.624 61.0966 29.6549 61.0368 29.6731C60.977 29.6913 60.9139 29.6963 60.8519 29.6878H55.9804C55.6137 29.6878 54.8306 29.8648 55.1947 29.2747C55.5587 28.6846 55.5587 27.9559 55.5587 27.2683V17.9266C55.5587 17.1569 55.5011 16.264 54.8673 15.8047C54.6944 15.6816 54.4692 15.5661 54.4482 15.3557C56.7954 14.9254 59.0104 13.973 60.9226 12.5719C60.9572 12.5422 61.0001 12.5235 61.0457 12.5181C61.1557 12.5181 61.1898 12.6643 61.1898 12.7746L61.1609 16.2306C62.1876 14.7117 63.9476 13.6367 65.8072 13.5828C67.6667 13.529 69.5656 14.5783 70.3225 16.2435C70.7808 17.2518 70.8201 18.3884 70.8463 19.4891L71.1082 28.1201C71.1082 28.5409 71.1501 29.0079 71.4539 29.3081C71.5718 29.4261 71.7342 29.6134 71.6032 29.7186C69.267 29.7323 66.9317 29.7323 64.5972 29.7186C64.5894 29.6858 64.5858 29.6522 64.5867 29.6185Z" fill="#222222"/>
<path d="M76.2496 29.6596C75.5886 29.646 74.9436 29.4576 74.383 29.1144C73.8223 28.7711 73.3669 28.2857 73.0648 27.7096C72.52 26.6448 72.4781 25.4005 72.6876 24.2203C72.871 23.194 73.2769 22.1395 74.1229 21.5032C74.4347 21.2815 74.7745 21.1004 75.1339 20.9644C77.1827 20.1421 79.4474 19.9883 81.5925 20.5256C81.658 19.4147 81.6737 18.2986 81.637 17.1902C81.6213 16.7079 81.5847 16.1922 81.2808 15.8124C81.106 15.6277 80.8935 15.4811 80.657 15.3821C80.4206 15.2831 80.1655 15.2339 79.9084 15.2377C79.2589 15.2069 78.4889 15.4635 78.337 16.0793C78.2322 16.4975 78.447 16.9208 78.4968 17.3621C78.5244 17.6204 78.5022 17.8816 78.4313 18.1318C78.2817 18.6791 77.9602 19.1663 77.5122 19.5246C77.0642 19.8828 76.5125 20.0939 75.9353 20.128C75.3573 20.135 74.7945 19.9464 74.3421 19.5939C73.8897 19.2414 73.5755 18.7467 73.4524 18.1934C73.388 17.7971 73.4121 17.3918 73.5231 17.0055C73.916 15.5738 75.2308 14.5193 76.666 14.0601C78.1013 13.6008 79.6544 13.647 81.1604 13.8035C82.2078 13.8614 83.2385 14.0867 84.2116 14.4706C85.1676 14.8888 86.024 15.6174 86.3802 16.5821C86.5627 17.1637 86.6511 17.7698 86.6421 18.3781C86.7137 20.6514 86.7277 22.9246 86.684 25.1978C86.6683 26.0393 86.6526 26.9142 87.0035 27.684C87.1076 27.9503 87.2993 28.1751 87.5483 28.3228C87.6742 28.393 87.8209 28.4188 87.9638 28.3959C88.1068 28.373 88.2374 28.3029 88.334 28.1971C88.4152 28.0893 88.5383 27.9251 88.6431 28.0149C88.6647 28.0429 88.6779 28.0762 88.6811 28.1111C88.6844 28.1461 88.6775 28.1812 88.6614 28.2125C88.3864 29.0335 87.4121 29.385 86.5452 29.5518C85.5499 29.7442 84.4997 29.834 83.5306 29.5313C82.5616 29.2285 81.6973 28.4691 81.5192 27.4787C81.5428 27.6198 80.7125 28.1535 80.5894 28.2484C80.2268 28.502 79.8431 28.7251 79.4422 28.9155C78.6593 29.2907 77.8203 29.541 76.9567 29.657C76.7216 29.6789 76.4849 29.6797 76.2496 29.6596ZM79.7644 26.9399C80.3274 26.6022 80.8426 26.1933 81.2966 25.7238C81.3848 25.653 81.4578 25.5658 81.5113 25.4672C81.5507 25.3534 81.5667 25.233 81.5585 25.1131L81.5297 22.0958C81.5322 22.0588 81.5249 22.0217 81.5087 21.9881C81.4776 21.9485 81.433 21.9211 81.383 21.9111C80.823 21.7276 80.2244 21.687 79.6439 21.7931C79.0624 21.9049 78.5406 22.216 78.172 22.6706C77.8757 23.1028 77.6733 23.5901 77.5775 24.1022C77.3862 24.7215 77.3574 25.378 77.4937 26.0111C77.6901 26.6859 78.3632 27.335 79.1201 27.1836C79.3455 27.1325 79.5624 27.0504 79.7644 26.9399Z" fill="#222222"/>
<path d="M89.4418 29.521C89.4376 29.4938 89.4376 29.4661 89.4418 29.4389C89.4418 29.2029 89.7508 28.8924 89.8294 28.6538C89.9604 28.1758 90.0134 27.6805 89.9865 27.1862V15.1094H88.2815L88.2632 13.4982H90.0284C89.9682 11.7663 89.9106 10.0114 90.2903 8.31802C90.6701 6.62465 91.5501 4.9826 93.0142 3.99993C94.1119 3.31891 95.3816 2.95108 96.6809 2.93773C98.2524 2.87872 99.8762 3.1943 101.167 4.0769C102.459 4.95951 103.367 6.44248 103.297 7.98191C103.288 8.45723 103.164 8.92378 102.937 9.3437C102.709 9.76362 102.384 10.1251 101.987 10.3988C101.568 10.6585 101.075 10.7819 100.58 10.7515C100.085 10.7211 99.6123 10.5384 99.2293 10.2295C98.8685 9.89738 98.6404 9.45008 98.5862 8.96801C98.5319 8.48594 98.655 8.00073 98.9333 7.59962C99.2843 7.12753 99.8762 6.79399 100.005 6.22183C100.04 5.97471 100.007 5.72268 99.9069 5.49298C99.8072 5.26327 99.6453 5.06461 99.4388 4.91845C99.0731 4.64231 98.6276 4.48664 98.166 4.47373C97.7045 4.46083 97.2507 4.59135 96.8695 4.84661C95.8533 5.55988 95.6804 6.94793 95.6333 8.18203C95.5652 9.9575 95.5757 11.7338 95.6647 13.511H97.4221V15.1197H95.6542V27.6917C95.6542 28.4332 95.7249 29.3029 96.364 29.6955C94.9549 29.7229 93.545 29.7382 92.1342 29.7417C91.4358 29.7417 90.7304 29.7417 90.018 29.7417C89.8189 29.7186 89.5046 29.734 89.4418 29.521Z" fill="#222222"/>
<path d="M120.643 29.616C119.534 29.4641 118.473 29.0771 117.532 28.482C116.592 27.8868 115.795 27.0979 115.198 26.1702C114.043 24.2612 113.684 21.9896 114.195 19.8278C114.548 18.1969 115.401 16.7108 116.641 15.5687C117.446 14.8645 118.395 14.3364 119.425 14.0196C120.454 13.7028 121.541 13.6047 122.613 13.7317C123.683 13.8705 124.713 14.219 125.643 14.7563C126.572 15.2936 127.382 16.0088 128.024 16.8593C129.3 18.5844 129.855 20.7218 129.577 22.8348C129.303 24.906 128.231 26.7963 126.58 28.1176C125.749 28.7541 124.793 29.2158 123.771 29.4736C122.75 29.7314 121.685 29.7799 120.643 29.616ZM122.039 28.641C122.385 28.5436 122.691 28.3405 122.911 28.0611C123.199 27.6628 123.402 27.2116 123.508 26.7347C124.079 24.6564 124.137 22.4756 124.061 20.3204C124.003 18.722 123.854 17.0594 123.013 15.6842C122.751 15.2454 122.351 14.8093 121.832 14.7913C121.608 14.7908 121.389 14.8512 121.198 14.9658C120.745 15.2539 120.394 15.6725 120.193 16.164C119.758 17.0876 119.637 18.1216 119.559 19.1376C119.375 21.5519 119.391 24.0124 119.907 26.3703C119.994 26.8699 120.166 27.3515 120.418 27.7943C120.664 28.2136 121.07 28.5207 121.547 28.6487C121.709 28.6834 121.878 28.6808 122.039 28.641Z" fill="#222222"/>
<path d="M134.485 29.6801C134.246 29.6656 134.008 29.6382 133.772 29.598C133.342 29.5383 132.931 29.3858 132.569 29.1516C132.207 28.9173 131.902 28.6071 131.677 28.2433C131.172 27.3966 131.153 26.3626 131.153 25.3825L131.137 15.1197L129.503 15.0966C129.448 14.5952 129.448 14.0894 129.503 13.588C130.048 13.5418 130.596 13.529 131.143 13.5495C131.172 12.4464 131.143 11.3425 131.056 10.2423C131.022 9.79844 130.928 9.27761 130.519 9.08774C130.362 9.01334 130.137 8.95176 130.142 8.78242C130.147 8.61309 130.323 8.56947 130.464 8.52585C132.56 8.03324 134.655 7.29175 136.308 5.96015C136.381 5.90114 136.504 5.84726 136.551 5.92679C136.564 5.95217 136.57 5.98063 136.567 6.0089V13.5521H138.364C138.395 14.0742 138.395 14.5976 138.364 15.1197H136.674V25.3338C136.643 25.9911 136.707 26.6494 136.865 27.2889C136.906 27.4797 136.989 27.6596 137.107 27.8167C137.225 27.9738 137.375 28.1044 137.549 28.1997C137.748 28.2787 137.97 28.2845 138.173 28.2161C138.376 28.1478 138.547 28.0098 138.654 27.8277C138.688 28.5974 137.869 29.1105 137.127 29.3671C136.274 29.6313 135.378 29.7375 134.485 29.6801Z" fill="#222222"/>
<path d="M114.559 29.2491C114.587 29.2816 114.607 29.3201 114.617 29.3615C114.628 29.4029 114.628 29.446 114.619 29.4877C114.572 29.6391 114.373 29.6673 114.213 29.6698C112.1 29.7006 109.987 29.7109 107.875 29.7006C107.786 29.48 108.055 29.3004 108.194 29.1079C108.456 28.7487 108.241 28.2587 108.029 27.8738L105.329 22.999C104.805 23.4172 104.763 24.1767 104.769 24.8412L104.803 29.1849C104.827 29.2506 104.833 29.3215 104.819 29.3901C104.806 29.4587 104.774 29.5226 104.727 29.575C104.68 29.6275 104.619 29.6666 104.551 29.6882C104.484 29.7098 104.411 29.7132 104.342 29.6981H99.6823C99.3365 29.6981 98.598 29.8161 98.983 29.2696C99.3156 28.8001 99.3287 28.1894 99.3261 27.6173L99.3103 15.5097C99.3103 14.9119 99.2946 14.273 98.9515 13.7778C98.8808 13.6727 98.7944 13.5367 98.8703 13.4366C98.9017 13.4065 98.9398 13.3838 98.9816 13.3705C99.0234 13.3571 99.0678 13.3534 99.1113 13.3596H104.305C104.366 13.3519 104.429 13.356 104.488 13.3719C104.548 13.3877 104.604 13.415 104.653 13.452C104.728 13.5486 104.762 13.6701 104.748 13.7907L104.813 20.9747L109.527 15.4456C109.708 15.2617 109.848 15.0434 109.939 14.8041C109.981 14.6836 109.987 14.5534 109.954 14.43C109.92 14.3066 109.85 14.1956 109.753 14.1114C109.491 13.9215 109.014 13.9908 108.891 13.688C110.668 13.6709 112.448 13.6709 114.229 13.688C114.319 13.678 114.41 13.6858 114.497 13.7109C114.583 13.736 114.664 13.778 114.734 13.8343C114.616 14.0601 114.299 14.0626 114.04 14.0909C113.029 14.1755 112.264 14.9914 111.607 15.7509L108.488 19.3429C110.045 22.1036 111.657 24.8343 113.322 27.5352C113.648 28.104 114.029 28.641 114.459 29.1387C114.495 29.1731 114.528 29.21 114.559 29.2491Z" fill="#222222"/>
<path d="M142.693 6.49381H141.907V6.23724H143.785V6.49381H142.999V8.5823H142.677L142.693 6.49381Z" fill="#222222"/>
<path d="M146.216 7.57912C146.216 7.14038 146.216 6.69652 146.229 6.44764H146.216C146.113 6.82993 145.726 7.84082 145.448 8.58231H145.163C144.953 7.97937 144.55 6.84533 144.442 6.44251C144.461 6.71448 144.469 7.23788 144.469 7.64326V8.58231H144.167V6.22443H144.647C144.909 6.95565 145.252 7.89983 145.336 8.20002C145.391 7.97167 145.786 6.93769 146.069 6.22443H146.533V8.58231H146.221L146.216 7.57912Z" fill="#222222"/>
<path d="M41.8424 20.1793L41.8529 20.1767L41.8424 19.9638V19.7457H41.8293L41.7717 18.6758L25.3239 19.8175L41.3239 15.9253L41.1169 15.1916L41.0358 14.8914L41.0515 14.8862L40.9755 14.6604L40.9258 14.4706L40.9127 14.4757L40.8079 14.1653L40.5748 13.4546L24.9756 18.7245L39.4145 10.9017L39.04 10.2577L38.8698 9.9729L38.875 9.96777L38.8069 9.86258L38.6524 9.59831L38.6393 9.60601L38.4664 9.3443L38.0448 8.70544L24.3784 17.7496L36.2507 6.55282L35.4754 5.79337L35.4833 5.78567L35.3288 5.64969L35.1638 5.48805L35.1559 5.49574L34.344 4.77991L23.5351 16.9798L32.0523 3.13529L31.3792 2.75557L31.1042 2.59906L31.1094 2.5888L30.9104 2.4913L30.7087 2.37584L30.7035 2.38611L30.418 2.24499L29.7266 1.89862L22.5241 16.4257L27.0787 0.90826L26.3322 0.718398L26.0206 0.63373L26.0258 0.620901L25.8268 0.57985L25.5963 0.515707L25.591 0.533667L25.2689 0.469524L24.5225 0.305319L21.39 16.1614L21.6938 0.0102628H20.5991V0L20.3791 0.0102628H20.1591V0.0230914L19.0643 0.0795369L20.2324 16.1947L16.2462 0.515707L15.5076 0.718398L15.188 0.800501L15.1854 0.785106L14.9628 0.856946L14.7611 0.90826L14.7664 0.923654L14.4599 1.02372L13.724 1.25207L19.1114 16.5129L11.1311 2.37584L10.4606 2.75557L10.183 2.91464L10.1751 2.90181L9.9106 3.07372L9.8006 3.13529L9.80322 3.14043L9.5256 3.31746L8.88916 3.73054L18.1214 17.1184L6.67604 5.48805L5.90079 6.2475L5.89293 6.2398L5.74364 6.40144L5.59174 6.55282L5.59959 6.56051L4.86625 7.35845L17.3174 17.9292L3.18742 9.59831L2.81551 10.2577L2.65051 10.5348L2.62956 10.5245L2.5117 10.7606L2.42789 10.9017L2.43836 10.9094L2.2917 11.2019L1.94074 11.8638L16.7726 18.9349L0.916678 14.4706L0.722866 15.1916L0.639056 15.5097L0.620722 15.5046L0.547388 15.8535L0.529054 15.9253H0.531673L0.466196 16.2358L0.311671 16.9773L16.4845 20.0433L0.0104763 19.7457V20.8181L0 20.8207L0.0104763 21.0362V21.2518H0.0235717L0.0811915 22.3217L16.5133 21.1799L0.529054 25.0721L0.722866 25.8059L0.804058 26.1112H0.801439L0.822391 26.183L0.916678 26.5268L0.932393 26.5217L1.03454 26.8347L1.26502 27.5454L16.8485 22.2755L2.42789 30.0957L2.97004 31.0271L2.9648 31.0297L3.04337 31.1477L3.18742 31.3991L3.20052 31.3914L3.79505 32.292L17.4614 23.2479L5.59174 34.46L6.36437 35.2195L6.35651 35.2272L6.52151 35.3708L6.67604 35.5222L6.68389 35.5145L7.49843 36.2329L18.3048 24.033L9.8006 37.875L10.4606 38.2419L10.7513 38.4086L10.7435 38.4215L11.0001 38.5472L11.1311 38.6216L11.1363 38.6139L11.4218 38.755L12.1132 39.0988L19.3262 24.5872L14.7611 40.0892L15.5076 40.2919L15.8166 40.3714V40.3791L16.0104 40.4201L16.2462 40.4817V40.4715L16.5735 40.5433L17.32 40.6947L20.4629 24.8463L20.1591 40.9872H21.2538V41L21.4738 40.9872H21.6938V40.9769L22.7886 40.9205L21.6231 24.8232L25.5963 40.4817L26.3322 40.2919L26.6544 40.2046L26.657 40.2149L26.9032 40.1379L27.0787 40.0892V40.084L27.3825 39.9865L28.1184 39.7479L22.7415 24.4999L30.7087 38.6216L31.3792 38.2419L31.6594 38.0905L31.6647 38.0956L31.7511 38.0392L32.0523 37.875L32.0392 37.857L32.3142 37.6825L32.9664 37.2823L23.721 23.897L35.1638 35.5222L35.939 34.7628L35.9469 34.7705L36.1014 34.6063L36.2507 34.46L36.2428 34.4523L36.9736 33.6544L24.5198 23.0657L38.6524 31.3991L39.1972 30.4678L39.2103 30.4755L39.3464 30.2112L39.4145 30.0957L39.4067 30.0906L39.9017 29.1336L25.0803 22.0625L40.9258 26.5268L41.1169 25.8059L41.206 25.4903L41.2191 25.4929L41.2584 25.303L41.3239 25.0721L41.3081 25.0695L41.3736 24.7642L41.5412 24.0201L25.3553 20.9541L41.8424 21.2518V20.1793Z" fill="#E13C51"/>
</svg>
